# xmcd
#
# Track frame offsets:
#	150
#	15550
#	37052
#	62675
#	82087
#	95822
#	100755
#	116032
#	133005
#	157765
#	181292
#	201735
#	243535
#
# Disc length: 3441 seconds
#
# Revision: 1
# Processed by: cddbd v1.5.1PL0 Copyright (c) Steve Scherf et al.
# Submitted via: CDex 1.50Beta5
#
DISCID=b60d6f0d
DTITLE=Various Latino - Viva! Latino! Mucho Caliente
DYEAR=1900
DGENRE=Latin
TTITLE0=The Gravesend Gang/Tic tic tac
TTITLE1=Sandy and Papo/mueve mueve
TTITLE2=Orange/vive la noche
TTITLE3=Carlos Nu将ミo/Baila Tango
TTITLE4=Nacho De Luxe/Una Cerveza
TTITLE5=Money For Jam feat. Tequila Brothers/love lease
TTITLE6=Kassis/mon carenage
TTITLE7=Re-Born/I Like It Like That
TTITLE8=Havana/cuban groove
TTITLE9=Red Hardin/123 maria
TTITLE10=Humberto and II Movimento Latino/Oye Como Va
TTITLE11=Rico/spanish hustle
TTITLE12=Money For Jam feat. Tequila Brothers/Love Lease (remix)
EXTD=
EXTT0=
EXTT1=
EXTT2=
EXTT3=
EXTT4=
EXTT5=
EXTT6=
EXTT7=
EXTT8=
EXTT9=
EXTT10=
EXTT11=
EXTT12=
PLAYORDER=
